<?xml version="1.0" standalone="no"?>
<!DOCTYPE svg PUBLIC "-//W3C//DTD SVG 20010904//EN"
 "http://www.w3.org/TR/2001/REC-SVG-20010904/DTD/svg10.dtd">
<svg version="1.0" xmlns="http://www.w3.org/2000/svg"
 width="260.000000pt" height="260.000000pt" viewBox="0 0 260.000000 260.000000"
 preserveAspectRatio="xMidYMid meet">
<metadata>
Created by potrace 1.11, written by Peter Selinger 2001-2013
</metadata>
<g transform="translate(0.000000,260.000000) scale(0.100000,-0.100000)"
fill="#000000" stroke="none">
<path d="M100 1620 l0 -840 520 0 520 0 0 100 0 100 -380 0 -380 0 0 260 0
260 380 0 380 0 0 120 0 120 -380 0 -380 0 0 260 0 260 380 0 380 0 0 100 0
100 -520 0 -520 0 0 -840z"/>
<path d="M1460 1620 l0 -840 120 0 120 0 0 540 c0 533 0 540 20 540 17 0 20
-7 20 -40 0 -33 3 -40 20 -40 17 0 20 -7 20 -40 0 -33 3 -40 20 -40 17 0 20
-7 20 -40 0 -33 3 -40 20 -40 17 0 20 -7 20 -40 0 -33 3 -40 20 -40 17 0 20
-7 20 -40 0 -33 3 -40 20 -40 17 0 20 -7 20 -40 0 -33 3 -40 20 -40 17 0 20
-7 20 -40 0 -33 3 -40 20 -40 17 0 20 -7 20 -40 0 -33 3 -40 20 -40 17 0 20
-7 20 -40 0 -33 3 -40 20 -40 17 0 20 -7 20 -40 0 -33 3 -40 20 -40 17 0 20
-7 20 -40 0 -33 3 -40 20 -40 17 0 20 -7 20 -40 0 -33 3 -40 20 -40 18 0 20
-7 20 -60 l0 -60 120 0 120 0 0 840 0 840 -120 0 -120 0 0 -560 c0 -553 0
-560 -20 -560 -17 0 -20 7 -20 40 0 33 -3 40 -20 40 -17 0 -20 7 -20 40 0 33
-3 40 -20 40 -17 0 -20 7 -20 40 0 33 -3 40 -20 40 -17 0 -20 7 -20 40 0 33
-3 40 -20 40 -17 0 -20 7 -20 40 0 33 -3 40 -20 40 -17 0 -20 7 -20 40 0 33
-3 40 -20 40 -17 0 -20 7 -20 40 0 33 -3 40 -20 40 -17 0 -20 7 -20 40 0 33
-3 40 -20 40 -17 0 -20 7 -20 40 0 33 -3 40 -20 40 -17 0 -20 7 -20 40 0 33
-3 40 -20 40 -17 0 -20 7 -20 40 0 33 -3 40 -20 40 -17 0 -20 7 -20 40 0 33
-3 40 -20 40 -18 0 -20 7 -20 80 l0 80 -120 0 -120 0 0 -840z"/>
<path d="M140 500 c0 -73 2 -80 20 -80 19 0 20 -7 20 -100 l0 -100 40 0 c33 0
40 3 40 20 0 13 7 20 20 20 13 0 20 7 20 20 0 13 7 20 20 20 13 0 20 -7 20
-20 0 -13 7 -20 20 -20 13 0 20 -7 20 -20 0 -13 7 -20 20 -20 13 0 20 7 20 20
0 13 7 20 20 20 17 0 20 7 20 40 0 33 3 40 20 40 18 0 20 7 20 80 0 73 2 80
20 80 17 0 20 7 20 40 0 33 -3 40 -20 40 -13 0 -20 -7 -20 -20 0 -13 -7 -20
-20 -20 -18 0 -20 -7 -20 -80 0 -73 -2 -80 -20 -80 -17 0 -20 -7 -20 -40 0
-33 -3 -40 -20 -40 -13 0 -20 7 -20 20 0 13 -7 20 -20 20 -13 0 -20 7 -20 20
0 13 -7 20 -20 20 -13 0 -20 -7 -20 -20 0 -13 -7 -20 -20 -20 -13 0 -20 -7
-20 -20 0 -13 -7 -20 -20 -20 -18 0 -20 7 -20 80 0 73 -2 80 -20 80 -18 0 -20
7 -20 60 0 53 -2 60 -20 60 -18 0 -20 -7 -20 -80z"/>
<path d="M860 400 l0 -180 80 0 80 0 0 100 0 100 -60 0 -60 0 0 80 c0 73 -2
80 -20 80 -19 0 -20 -7 -20 -180z m120 -80 l0 -60 -40 0 -40 0 0 40 c0 33 3
40 20 40 13 0 20 7 20 20 0 13 7 20 20 20 18 0 20 -7 20 -60z"/>
<path d="M1340 560 c0 -13 7 -20 20 -20 18 0 20 -7 20 -80 0 -73 -2 -80 -20
-80 -13 0 -20 -7 -20 -20 0 -13 7 -20 20 -20 18 0 20 -7 20 -80 0 -73 2 -80
20 -80 18 0 20 7 20 80 l0 80 40 0 c33 0 40 3 40 20 0 18 7 20 60 20 l60 0 0
80 0 80 -40 0 c-33 0 -40 3 -40 20 0 19 -7 20 -100 20 -93 0 -100 -1 -100 -20z
m200 -40 c0 -13 7 -20 20 -20 17 0 20 -7 20 -40 l0 -40 -40 0 c-33 0 -40 -3
-40 -20 0 -17 -7 -20 -40 -20 l-40 0 0 80 0 80 60 0 c53 0 60 -2 60 -20z"/>
<path d="M620 420 c0 -33 -3 -40 -20 -40 -18 0 -20 -7 -20 -60 0 -53 2 -60 20
-60 13 0 20 -7 20 -20 0 -18 7 -20 80 -20 73 0 80 2 80 20 0 18 -7 20 -60 20
-53 0 -60 2 -60 20 0 17 7 20 40 20 33 0 40 3 40 20 0 13 7 20 20 20 18 0 20
7 20 60 l0 60 -80 0 -80 0 0 -40z m120 -40 l0 -40 -40 0 -40 0 0 40 0 40 40 0
40 0 0 -40z"/>
<path d="M2260 440 c0 -13 -7 -20 -20 -20 -19 0 -20 -7 -20 -120 l0 -120 100
0 c93 0 100 1 100 20 0 18 -7 20 -80 20 -73 0 -80 2 -80 20 0 17 7 20 40 20
33 0 40 3 40 20 0 17 7 20 40 20 l40 0 0 60 c0 53 -2 60 -20 60 -13 0 -20 7
-20 20 0 18 -7 20 -60 20 -53 0 -60 -2 -60 -20z m80 -40 c0 -13 7 -20 20 -20
13 0 20 -7 20 -20 0 -13 -7 -20 -20 -20 -13 0 -20 -7 -20 -20 0 -17 -7 -20
-40 -20 l-40 0 0 40 c0 33 3 40 20 40 13 0 20 7 20 20 0 13 7 20 20 20 13 0
20 -7 20 -20z"/>
<path d="M1940 380 c0 -33 -3 -40 -20 -40 -17 0 -20 -7 -20 -40 l0 -40 80 0
80 0 0 -60 0 -60 -40 0 c-33 0 -40 3 -40 20 0 13 -7 20 -20 20 -17 0 -20 -7
-20 -40 l0 -40 80 0 80 0 0 100 c0 93 1 100 20 100 17 0 20 7 20 40 0 33 -3
40 -20 40 -13 0 -20 7 -20 20 0 18 -7 20 -80 20 l-80 0 0 -40z m120 -40 l0
-40 -60 0 c-53 0 -60 2 -60 20 0 13 7 20 20 20 13 0 20 7 20 20 0 17 7 20 40
20 l40 0 0 -40z"/>
<path d="M1700 360 c0 -17 -7 -20 -40 -20 l-40 0 0 -60 c0 -53 2 -60 20 -60
13 0 20 -7 20 -20 0 -17 7 -20 40 -20 33 0 40 3 40 20 0 13 7 20 20 20 13 0
20 -7 20 -20 0 -17 7 -20 40 -20 33 0 40 3 40 20 0 13 -7 20 -20 20 -18 0 -20
7 -20 80 l0 80 -60 0 c-53 0 -60 -2 -60 -20z m80 -60 c0 -33 -3 -40 -20 -40
-13 0 -20 -7 -20 -20 0 -17 -7 -20 -40 -20 l-40 0 0 40 c0 33 3 40 20 40 13 0
20 7 20 20 0 17 7 20 40 20 l40 0 0 -40z"/>
</g>
</svg>
